<?xml version="1.0" standalone="no"?>
<!DOCTYPE svg PUBLIC "-//W3C//DTD SVG 20010904//EN"
 "http://www.w3.org/TR/2001/REC-SVG-20010904/DTD/svg10.dtd">
<svg version="1.0" xmlns="http://www.w3.org/2000/svg"
 width="457.000000pt" height="315.000000pt" viewBox="0 0 457.000000 315.000000"
 preserveAspectRatio="xMidYMid meet">

<g transform="translate(0.000000,315.000000) scale(0.100000,-0.100000)"
fill="#000000" stroke="none">
<path d="M72 2963 l-22 -4 2 -192 3 -192 183 -3 182 -2 0 -1110 0 -1110 188 2
187 3 3 1108 2 1107 180 0 180 0 0 194 0 193 -68 5 c-82 6 -988 6 -1020 1z"/>
<path d="M1428 2963 l-28 -4 0 -1305 0 -1304 190 0 190 0 2 553 3 552 49 0 50
0 27 -145 c30 -162 54 -294 99 -545 30 -171 56 -310 69 -375 l7 -35 187 -3
c161 -2 187 0 187 13 0 16 -11 77 -65 350 -31 156 -64 330 -116 605 -11 58
-26 134 -34 170 -29 131 -29 122 14 163 72 68 131 197 157 342 18 103 18 347
0 450 -39 218 -140 375 -290 448 -107 53 -179 64 -436 70 -129 3 -247 3 -262
0z m454 -389 c48 -8 110 -62 136 -117 48 -102 64 -269 38 -394 -35 -161 -99
-235 -219 -249 l-57 -7 0 385 c0 212 3 388 7 392 4 4 19 4 33 2 14 -3 42 -8
62 -12z"/>
<path d="M2863 2963 c-10 -7 -13 -244 -15 -1085 -3 -1075 -3 -1077 -24 -1105
-34 -46 -82 -73 -130 -73 l-44 0 0 -184 c0 -183 0 -184 23 -190 28 -7 179 8
238 24 153 41 255 147 305 315 17 56 18 138 21 1172 2 681 -1 1114 -6 1118
-16 10 -355 17 -368 8z"/>
<path d="M3593 2962 c-23 -3 -23 -4 -23 -188 l0 -184 255 0 c140 0 255 -3 255
-7 0 -8 -175 -544 -400 -1223 -70 -212 -144 -435 -164 -497 l-36 -112 2 -198
3 -198 508 -3 507 -2 0 190 0 190 -305 0 c-168 0 -305 3 -305 6 0 7 360 1101
521 1586 l89 266 0 186 0 186 -27 1 c-82 3 -861 4 -880 1z"/>
<path d="M465 185 c-53 -53 -14 -150 57 -143 45 4 49 28 5 28 -29 0 -37 5 -45
28 -16 47 13 98 50 86 24 -7 45 6 27 17 -26 17 -70 9 -94 -16z"/>
<path d="M616 157 c-25 -18 -24 -84 1 -102 53 -41 123 19 91 79 -20 38 -58 48
-92 23z m64 -53 c0 -30 -3 -34 -25 -34 -22 0 -25 4 -25 34 0 19 6 36 13 39 24
8 37 -6 37 -39z"/>
<path d="M750 55 c0 -8 7 -15 15 -15 8 0 15 7 15 15 0 8 -7 15 -15 15 -8 0
-15 -7 -15 -15z"/>
</g>
</svg>
